<svg xmlns="http://www.w3.org/2000/svg" width="17.606" height="17.607" viewBox="0 0 17.606 17.607"><g transform="translate(0)"><path d="M17.579,13.642q-.075-.225-.95-.663-.237-.138-.675-.375t-.794-.438q-.357-.2-.669-.387-.05-.038-.313-.219a3.515,3.515,0,0,0-.444-.269.819.819,0,0,0-.356-.087,1.038,1.038,0,0,0-.625.356,6.089,6.089,0,0,0-.688.776,7.539,7.539,0,0,1-.663.775.953.953,0,0,1-.575.356.85.85,0,0,1-.281-.062c-.112-.042-.2-.077-.257-.106s-.158-.088-.3-.175-.221-.136-.238-.144A13.141,13.141,0,0,1,6.813,10.8,13.134,13.134,0,0,1,4.637,7.865q-.012-.025-.144-.238t-.175-.3a2.71,2.71,0,0,1-.106-.256.846.846,0,0,1-.063-.281.953.953,0,0,1,.356-.575,7.531,7.531,0,0,1,.775-.663,6.086,6.086,0,0,0,.775-.688,1.038,1.038,0,0,0,.356-.625.817.817,0,0,0-.087-.356,3.476,3.476,0,0,0-.269-.444q-.181-.263-.219-.313-.187-.312-.388-.669t-.438-.794q-.238-.437-.375-.675Q4.2.113,3.974.038A.7.7,0,0,0,3.712,0,4.12,4.12,0,0,0,2.83.125a4.952,4.952,0,0,0-.857.263A3.352,3.352,0,0,0,.648,1.913,4.848,4.848,0,0,0,.01,4.239,4.829,4.829,0,0,0,.054,4.9a5.4,5.4,0,0,0,.156.719q.112.4.181.594T.648,6.9q.187.5.225.613A11.327,11.327,0,0,0,1.911,9.7a18.542,18.542,0,0,0,2.695,3.308,18.55,18.55,0,0,0,3.308,2.695A11.344,11.344,0,0,0,10.1,16.744q.113.037.613.225t.694.256q.194.069.594.182a5.443,5.443,0,0,0,.719.157,4.638,4.638,0,0,0,2.982-.594,3.35,3.35,0,0,0,1.525-1.326,4.925,4.925,0,0,0,.263-.856,4.111,4.111,0,0,0,.125-.882A.7.7,0,0,0,17.579,13.642Z" transform="translate(-0.01)" fill="#fd8187"/></g></svg>