<svg xmlns="http://www.w3.org/2000/svg" width="59.819" height="59.819" viewBox="0 0 59.819 59.819"><g transform="translate(-635.09 -481.09)"><path d="M11.253,0H15.42a1.247,1.247,0,0,1,1.25,1.25V10h4.569a1.04,1.04,0,0,1,.735,1.776L14.05,19.708a1.009,1.009,0,0,1-1.422,0L4.694,11.779A1.04,1.04,0,0,1,5.428,10H10V1.25A1.247,1.247,0,0,1,11.253,0Zm15.42,19.588v5.835a1.247,1.247,0,0,1-1.25,1.25H1.25A1.247,1.247,0,0,1,0,25.422V19.588a1.247,1.247,0,0,1,1.25-1.25H8.893l2.553,2.553a2.669,2.669,0,0,0,3.782,0l2.553-2.553h7.642A1.247,1.247,0,0,1,26.673,19.588Zm-6.46,4.584a1.042,1.042,0,1,0-1.042,1.042A1.045,1.045,0,0,0,20.213,24.172Zm3.334,0a1.042,1.042,0,1,0-1.042,1.042A1.045,1.045,0,0,0,23.547,24.172Z" transform="translate(652.262 498.262)" fill="#fd8187"/><g transform="translate(635.09 481.09)" fill="none" stroke="#fd8187" stroke-width="2"><circle cx="29.91" cy="29.91" r="29.91" stroke="none"/><circle cx="29.91" cy="29.91" r="28.91" fill="none"/></g></g></svg>