<svg xmlns="http://www.w3.org/2000/svg" width="25.221" height="31" viewBox="0 0 25.221 31"><path d="M30.195,3.153H22.816A4.176,4.176,0,0,0,21.863.677,2.223,2.223,0,0,0,20.211,0H14.958a2.223,2.223,0,0,0-1.652.677,4.176,4.176,0,0,0-.953,2.475H6.025a.525.525,0,0,0,0,1.051H7.1L8.1,28.384A2.549,2.549,0,0,0,10.683,31H25.538a2.546,2.546,0,0,0,2.578-2.605L29.123,4.2h1.072a.525.525,0,0,0,0-1.051ZM13.381,26.271a.525.525,0,1,1-1.051,0V8.932a.525.525,0,1,1,1.051,0Zm5.254,0a.525.525,0,1,1-1.051,0V8.932a.525.525,0,1,1,1.051,0Zm5.254,0a.525.525,0,1,1-1.051,0V8.932a.525.525,0,1,1,1.051,0ZM14.06,1.409a1.191,1.191,0,0,1,.9-.358h5.254a1.191,1.191,0,0,1,.9.358,3.092,3.092,0,0,1,.652,1.744H13.409A3.1,3.1,0,0,1,14.06,1.409Z" transform="translate(-5.5)" fill="#fc5f67"/></svg>