<svg xmlns="http://www.w3.org/2000/svg" width="21.565" height="22.291" viewBox="0 0 21.565 22.291"><g transform="translate(0)"><path d="M29.728,14.28l-2.346-1.964a7.758,7.758,0,0,0,0-2.342l2.346-1.964a.464.464,0,0,0,.1-.588L27.7,3.723a.465.465,0,0,0-.561-.2L24.265,4.567A8.327,8.327,0,0,0,22.233,3.4L21.705.384A.465.465,0,0,0,21.248,0H16.976a.465.465,0,0,0-.458.384L15.99,3.4a8.327,8.327,0,0,0-2.032,1.169L11.089,3.519a.463.463,0,0,0-.561.2l-2.136,3.7a.464.464,0,0,0,.1.588l2.346,1.964a7.758,7.758,0,0,0,0,2.342L8.5,14.28a.464.464,0,0,0-.1.588l2.136,3.7a.465.465,0,0,0,.561.2l2.869-1.048a8.327,8.327,0,0,0,2.032,1.169l.528,3.014a.465.465,0,0,0,.458.384h4.272a.465.465,0,0,0,.458-.384l.528-3.014a8.327,8.327,0,0,0,2.032-1.169l2.869,1.048a.467.467,0,0,0,.561-.2l2.136-3.7A.464.464,0,0,0,29.728,14.28ZM19.112,15.789a4.644,4.644,0,1,1,4.644-4.644A4.649,4.649,0,0,1,19.112,15.789Z" transform="translate(-8.329)" fill="#fd8187"/></g></svg>