<svg xmlns="http://www.w3.org/2000/svg" width="10.122" height="22.907" viewBox="0 0 10.122 22.907"><g transform="translate(0)"><path d="M40.957,20.435l-.32,1.308q-1.44.568-2.3.866a6.062,6.062,0,0,1-1.993.3,3.979,3.979,0,0,1-2.711-.85,2.752,2.752,0,0,1-.967-2.16,7.642,7.642,0,0,1,.072-1.04q.074-.532.234-1.2l1.2-4.247q.16-.61.27-1.156a5.026,5.026,0,0,0,.109-1,1.54,1.54,0,0,0-.336-1.135A1.9,1.9,0,0,0,32.933,9.8a3.363,3.363,0,0,0-.954.146c-.326.1-.605.19-.84.276l.321-1.309q1.179-.48,2.256-.822a6.748,6.748,0,0,1,2.04-.342,3.882,3.882,0,0,1,2.671.837,2.777,2.777,0,0,1,.938,2.174c0,.185-.021.51-.065.975a6.519,6.519,0,0,1-.24,1.281l-1.195,4.23a11.237,11.237,0,0,0-.263,1.165,6,6,0,0,0-.117.989,1.425,1.425,0,0,0,.376,1.149,2.125,2.125,0,0,0,1.307.305,3.775,3.775,0,0,0,.988-.153A5.527,5.527,0,0,0,40.957,20.435Zm.3-17.76a2.475,2.475,0,0,1-.836,1.884,2.846,2.846,0,0,1-2.013.779,2.877,2.877,0,0,1-2.023-.779,2.47,2.47,0,0,1-.844-1.884,2.5,2.5,0,0,1,.844-1.89,2.986,2.986,0,0,1,4.036,0A2.5,2.5,0,0,1,41.26,2.675Z" transform="translate(-31.139 0)" fill="#fd8187"/></g></svg>