<svg xmlns="http://www.w3.org/2000/svg" width="581.648" height="262.112" viewBox="0 0 581.648 262.112"><g transform="translate(-335.855 -259)"><path d="M2.688,262.112a2.958,2.958,0,0,1-1.69-.4,2.318,2.318,0,0,1-.941-1.572,9.423,9.423,0,0,1,.985-4.83,51.878,51.878,0,0,1,3.621-6.888c3.1-5.13,7.469-11.311,11.693-17.288,9.747-13.791,19.826-28.052,16.285-31.865A123.334,123.334,0,0,1,9.606,164.449,101.881,101.881,0,0,1,1,123.785,99.684,99.684,0,0,1,4.2,98.838,109.077,109.077,0,0,1,13.216,75.6,125.051,125.051,0,0,1,27.181,54.575a142.16,142.16,0,0,1,18.041-18.32A154.349,154.349,0,0,1,66.469,21.14,157.066,157.066,0,0,1,90.048,9.728a149.47,149.47,0,0,1,25.041-7.213A134.884,134.884,0,0,1,140.721,0a138.43,138.43,0,0,1,33.387,4.212,157.205,157.205,0,0,1,32.133,11.906,159.311,159.311,0,0,1,28.87,18.505,143.016,143.016,0,0,1,23.6,24.009A45.628,45.628,0,0,0,248.9,67.4c-7.454,8.65-18.789,25.654-33.693,50.539-14.764,24.888-26.242,42.462-34.116,52.234a66.8,66.8,0,0,1-10.754,11.045c-3.2,2.443-6.069,3.682-8.529,3.682a5.464,5.464,0,0,1-3.43-1.139,8.449,8.449,0,0,1-2.45-3.417c-1.3-3.023-1.96-7.621-1.96-13.668,0-5.061,1.283-11.514,3.814-19.178a172.876,172.876,0,0,1,6.886-18.118c2.037-4.354,5.067-10.556,9.006-18.435,5.484-10.686,8.265-16.461,8.265-17.164a5.548,5.548,0,0,0-2.172-4.768c-1.441-1.055-3.634-1.59-6.516-1.59-5.062,0-9.126,2.353-12.078,6.993-9.772,15.045-18.764,28.323-26.726,39.467s-15.118,20.464-21.27,27.706a146.9,146.9,0,0,1-15.707,16.37c-4.271,3.621-7.649,5.457-10.039,5.457-1.827,0-3.467-1.248-4.874-3.708a18.914,18.914,0,0,1-2.119-9.43c0-4.57,1.764-10.879,5.244-18.753a241.631,241.631,0,0,1,15.734-28.713,319.605,319.605,0,0,0,17.8-31.15c3.937-8.226,5.934-14.428,5.934-18.435,0-6.047-1.569-10.538-4.662-13.35s-8.725-4.238-16.74-4.238c-6.188,0-13.994,1.711-23.2,5.085A90.5,90.5,0,0,0,55.325,74.822c-7.523,5.976-11.337,12-11.337,17.906a9.487,9.487,0,0,0,2.543,6.992,7.356,7.356,0,0,0,5.085,2.543c2.531,0,7.879-3.493,15.893-10.383,6.192-5.348,11-9.412,14.3-12.079a90.7,90.7,0,0,1,11.125-7.629c4.078-2.39,7.571-3.6,10.383-3.6,1.406,0,2.119.927,2.119,2.755,0,2.39-6.488,13.512-19.283,33.057C75.752,119.5,67.839,132.758,62.636,143.8S54.8,163.96,54.8,170.92a37.711,37.711,0,0,0,2.437,13.137,29.625,29.625,0,0,0,8.9,12.078,23.3,23.3,0,0,0,15.574,5.51c8.437,0,16.9-3.707,25.164-11.019s16.549-18.433,24.634-33.057c-1.546,8.573-2.331,13.064-2.331,13.35,0,9,2.424,16.591,7.2,22.567s11.911,9.006,21.191,9.006c10.686,0,20.952-5.062,30.514-15.046s22.966-28.165,39.837-54.035c8.717-13.216,17.7-26.049,26.7-38.143,6.106-8.205,11.138-14.907,14.955-19.92a108.068,108.068,0,0,1,9.316,23.35,96.646,96.646,0,0,1,.037,50.031,107.933,107.933,0,0,1-9.217,23.236,125.453,125.453,0,0,1-14.247,21.027,144.351,144.351,0,0,1-18.364,18.32,157.962,157.962,0,0,1-21.569,15.115,161.078,161.078,0,0,1-23.861,11.413,152.592,152.592,0,0,1-25.24,7.213,132.821,132.821,0,0,1-58.434-1.576,154.963,154.963,0,0,1-31.6-11.667,2.763,2.763,0,0,0-1.209-.222c-5.049,0-19.481,7.148-34.76,14.717l-1.1.544C24.884,254,8.513,262.111,2.688,262.112Z" transform="translate(335.855 259)" fill="#fff"/><path d="M97.324-113.23q-2.014,0-2.014-1.888,0-2.014,4.656-8.117t9.25-13.088q4.593-6.985,4.593-11.138A8.628,8.628,0,0,0,111.168-154a9.622,9.622,0,0,0-6.922-2.517q-10.194,0-25.8,16.864l-.252-.252q.252-.378,3.461-6.1t3.964-7.11q2.139-3.02,4.845-7.048t4.4-6.481q1.7-2.454,3.775-5.537t3.335-5.034q1.258-1.951,2.706-4.216t2.265-3.65q.818-1.384,1.51-2.832a19.133,19.133,0,0,0,1.007-2.454,6.023,6.023,0,0,0,.315-1.762q0-4.153-5.537-4.153a9.521,9.521,0,0,0-6.544,2.769q-3.02,2.769-7.8,11.326L57.178-123.423Q50.76-112.349,50.76-108.7q0,3.9,4.908,3.9a6.549,6.549,0,0,0,6.167-3.9q8.306-16.864,19.318-27.876t18.185-11.012q2.391,0,2.391,2.265,0,2.139-4.593,8.243T87.948-123.99q-4.593,6.985-4.593,11.515,0,4.279,2.832,6.355a11.489,11.489,0,0,0,6.985,2.077q6.8,0,14.158-6.8T124-130.974a2.5,2.5,0,0,0,.44-2.454,1.849,1.849,0,0,0-1.951-1.321q-1.007,0-3.65,2.769Q103.617-113.23,97.324-113.23Zm21.52-18.752q-8.306,12.962-8.306,18.5a9.149,9.149,0,0,0,2.643,6.859,9.486,9.486,0,0,0,6.922,2.58q6.8,0,14.1-6.8t16.612-20.136a2.628,2.628,0,0,0,.5-2.454,1.834,1.834,0,0,0-2.014-1.321q-1.007,0-3.65,2.769-14.976,18.751-21.394,18.752-2.014,0-2.014-1.888a8.5,8.5,0,0,1,.629-2.832,25.4,25.4,0,0,1,2.454-4.531q1.825-2.832,3.146-4.782t4.468-6.481q1.384-1.888,3.209-4.4t2.895-3.964q1.07-1.447,2.139-3.083a18.5,18.5,0,0,0,1.573-2.832,5.5,5.5,0,0,0,.5-2.077,3.8,3.8,0,0,0-1.133-3.083,6.179,6.179,0,0,0-3.9-.944q-4.656,0-8.306,5.286Zm20.513-37.5a5.829,5.829,0,0,0,1.888,4.656,7.614,7.614,0,0,0,5.16,1.636,9.669,9.669,0,0,0,6.041-2.139,6.149,6.149,0,0,0,2.769-4.908,6.024,6.024,0,0,0-1.888-4.719,7.43,7.43,0,0,0-5.16-1.7,9.5,9.5,0,0,0-6.041,2.2A6.315,6.315,0,0,0,139.358-169.484Zm15.354,65.819q13.34,0,22.779-7.048t18.5-20.262a2.628,2.628,0,0,0,.5-2.454,1.834,1.834,0,0,0-2.014-1.321q-1.384,0-3.524,2.769-8.684,11.452-15.605,16.109a21.575,21.575,0,0,0,3.272-11.578,47.169,47.169,0,0,0-.5-6.922,54.41,54.41,0,0,0-1.007-5.349,14.041,14.041,0,0,1-.378-4.279,12.963,12.963,0,0,1,1.133-4.593q4.782-4.782,5.034-6.544a3.3,3.3,0,0,0-.818-2.769,3.283,3.283,0,0,0-2.328-.881,8.511,8.511,0,0,0-5.286,2.265q-2.769,1.888-11.767,10.886t-11.138,10.76q-4.153-2.014-8.621,3.083a17.811,17.811,0,0,0-4.468,12.144,17.329,17.329,0,0,0,3.964,10.949Q146.405-103.665,154.711-103.665Zm13.843-25.8a15.524,15.524,0,0,1-5.474,11.893Q157.606-112.6,152.7-112.6q-5.286,0-5.286-5.537a7.053,7.053,0,0,1,1.384-4.279,25.024,25.024,0,0,1,3.4-3.713,15.1,15.1,0,0,0,2.769-3.083q2.643-2.391,7.488-6.355t5.852-4.845q-.126,2.517.063,6.544T168.555-129.464Zm82.054-1.51a2.628,2.628,0,0,0,.5-2.454,1.834,1.834,0,0,0-2.014-1.321q-1.258,0-3.65,2.769A43.529,43.529,0,0,1,227.2-118.515a60.361,60.361,0,0,0,10-12.27q3.838-6.355,3.838-11.389,0-13.34-10.32-13.34-6.292,0-12.207,5.034a96.86,96.86,0,0,0-12.837,13.843l-.5-.126a51.46,51.46,0,0,1,3.65-5.915q2.139-3.02,3.083-4.656a6.126,6.126,0,0,0,.944-3.02q0-3.775-5.286-3.775a7.078,7.078,0,0,0-6.544,3.65q-2.895,5.034-31.336,58.268-.378.629-1.2,2.139t-1.133,2.014q-.315.5-.881,1.573a11.973,11.973,0,0,0-.755,1.636q-.189.566-.5,1.384a5.7,5.7,0,0,0-.378,1.447q-.063.629-.063,1.258,0,3.524,4.908,3.524,4.027,0,6.67-5.16,1.51-2.895,4.656-9.187t6.1-11.83q2.957-5.537,5.726-9.942l6.041-9.439a78.446,78.446,0,0,1,13.78-16.3q8.872-8.243,13.4-8.243,3.146,0,3.146,4.027,0,5.034-6.922,14.6a46.794,46.794,0,0,1-15.605,14.221q-1.636.126-4.656.126-7.3,0-7.3,5.537,0,5.034,5.789,5.034,5.537,0,13.969-4.908Q240.163-113.985,250.608-130.974ZM280.057-150.1q3.02,0,3.02,3.65,0,5.034-6.292,9.061t-16.864,3.02a39.73,39.73,0,0,1,10.194-11.138Q276.281-150.1,280.057-150.1Zm-21.269,46.312q9.816,0,20.513-8.18a70.259,70.259,0,0,0,17.367-19,2.628,2.628,0,0,0,.5-2.454,1.834,1.834,0,0,0-2.014-1.321q-1.007,0-3.65,2.769-15.1,18.626-27.938,18.626a7.836,7.836,0,0,1-5.789-2.014,7.483,7.483,0,0,1-2.014-5.537,23.756,23.756,0,0,1,1.888-8.935q15.228,2.139,23.723-3.272t8.495-12.837q0-5.412-3.4-8.243a13.5,13.5,0,0,0-8.935-2.832q-7.048,0-15.039,4.845a44.825,44.825,0,0,0-13.906,13.655,32.676,32.676,0,0,0-5.915,18.5q0,7.3,4.342,11.767T258.788-103.791Zm47.571,0q7.677,0,15.542-6.922t17.178-20.262a2.628,2.628,0,0,0,.5-2.454,1.834,1.834,0,0,0-2.014-1.321q-1.133,0-3.524,2.769Q318.818-113.23,312.4-113.23q-2.014,0-2.014-1.888,0-4.153,19.381-29.826a9.95,9.95,0,0,0,2.265-5.537q0-4.279-4.153-4.279-4.4,0-15.983,2.517a1.91,1.91,0,0,1,.189-.692,3.541,3.541,0,0,0,.252-1.007,10.842,10.842,0,0,0,.063-1.2q0-4.656-4.908-4.656a9.125,9.125,0,0,0-6.544,2.832,8.7,8.7,0,0,0-2.895,6.355,3.922,3.922,0,0,0,1.321,3.146,3.915,3.915,0,0,0,2.454,1.133q-4.027,6.167-10.32,14.347a18.58,18.58,0,0,0-1.888,3.524q0,2.391,2.014,2.391,1.888,0,4.279-3.9,8.809-12.207,11.83-16.99,8.432-1.636,11.578-2.014-2.014,3.4-7.991,11.515t-9.879,14.724q-3.9,6.607-3.9,10.508A7.9,7.9,0,0,0,300-105.93,9.321,9.321,0,0,0,306.359-103.791Z" transform="translate(577.806 526.714)" fill="#fff"/></g></svg>