<svg xmlns="http://www.w3.org/2000/svg" xmlns:xlink="http://www.w3.org/1999/xlink" width="1248.882" height="562.343" viewBox="0 0 1248.882 562.343"><defs><clipPath id="a"><path d="M285.762,0C432.433,0,589.3,118.9,589.3,265.571S432.433,531.143,285.762,531.143c-46.858,0-94.373-12.136-138.007-33.806-14.9-7.4-147.5,74.168-161.761,64.152C-31.923,548.9,69.082,443.894,53.886,427.523c-41.27-44.456-67.892-100.79-67.892-161.952C-14.006,118.9,139.091,0,285.762,0Z" transform="translate(863 440)" fill="#8192fd"/></clipPath></defs><g transform="translate(-334.856 -259)"><g transform="translate(-512 -181)" clip-path="url(#a)"><g transform="translate(-6 8)"><circle cx="380" cy="380" r="380" transform="translate(750 369)" fill="#fd8187"/><path d="M79.711,177.795q54.555,0,106.836-94.561-5,27.732-5,28.641,0,29.1,15.457,48.417t45.462,19.321q34.551,0,65.466-32.278T393.4,31.406q28.187-42.734,57.282-81.832t42.053-55.691q12.957-16.594,12.957-20.231,0-4.546-4.774-8.183a19.309,19.309,0,0,0-12.047-3.637q-26.368,0-50.463,27.959T366.123-1.781q-47.735,80.468-73.194,112.064t-41.371,31.6q-16.821,0-16.821-39.1,0-16.366,8.183-41.143T257.7,22.768q6.592-14.093,19.321-39.552,17.73-34.551,17.73-36.824,0-13.639-18.64-13.639-16.366,0-25.913,15Q187,45.045,147.222,91.871T91.986,138.7q-5.91,0-10.456-7.956T76.983,110.51q0-29.55,45.008-101.835,50.918-80.468,50.918-106.382,0-19.549-10-28.641t-35.915-9.092q-20,0-49.781,10.911A193.225,193.225,0,0,0,23.11-94.3Q-1.212-74.976-1.212-55.881q0,9.547,5.455,15t10.911,5.455q8.183,0,34.1-22.277,20-17.276,30.687-25.913A193.647,193.647,0,0,1,103.806-99.98q13.184-7.729,22.276-7.729,4.546,0,4.546,5.91,0,7.729-41.371,70.921Q21.974,66.867,21.974,111.874A80.557,80.557,0,0,0,27.2,140.061Q32.43,154.154,46.3,165.974T79.711,177.795Z" transform="translate(942.441 694.821)" fill="#fff"/></g></g><path d="M150.66-18.09q-4.32,0-4.32-4.05,0-4.32,9.99-17.415t19.845-28.08Q186.03-82.62,186.03-91.53q0-8.64-5.67-14.04t-14.85-5.4q-21.87,0-55.35,36.18l-.54-.54q.54-.81,7.425-13.1t8.505-15.255q4.59-6.48,10.4-15.12t9.45-13.9q3.645-5.265,8.1-11.88t7.155-10.8q2.7-4.185,5.805-9.045t4.86-7.83q1.755-2.97,3.24-6.075a41.046,41.046,0,0,0,2.16-5.265,12.923,12.923,0,0,0,.675-3.78q0-8.91-11.88-8.91-7.56,0-14.04,5.94t-16.74,24.3L64.53-39.96Q50.76-16.2,50.76-8.37,50.76,0,61.29,0,70.2,0,74.52-8.37q17.82-36.18,41.445-59.805T154.98-91.8q5.13,0,5.13,4.86,0,4.59-9.855,17.685t-19.71,28.08q-9.855,14.985-9.855,24.7,0,9.18,6.075,13.635T141.75,1.62q14.58,0,30.375-14.58T207.9-56.16a5.356,5.356,0,0,0,.945-5.265,3.967,3.967,0,0,0-4.185-2.835q-2.16,0-7.83,5.94Q164.16-18.09,150.66-18.09Zm46.17-40.23q-17.82,27.81-17.82,39.69,0,9.18,5.67,14.715T199.53,1.62q14.58,0,30.24-14.58t35.64-43.2a5.638,5.638,0,0,0,1.08-5.265q-.81-2.835-4.32-2.835-2.16,0-7.83,5.94-32.13,40.23-45.9,40.23-4.32,0-4.32-4.05a18.243,18.243,0,0,1,1.35-6.075,54.5,54.5,0,0,1,5.265-9.72q3.915-6.075,6.75-10.26t9.585-13.9q2.97-4.05,6.885-9.45t6.21-8.505q2.3-3.1,4.59-6.615a39.7,39.7,0,0,0,3.375-6.075,11.8,11.8,0,0,0,1.08-4.455q0-4.59-2.43-6.615t-8.37-2.025q-9.99,0-17.82,11.34Zm44.01-80.46q0,6.48,4.05,9.99t11.07,3.51a20.744,20.744,0,0,0,12.96-4.59q5.94-4.59,5.94-10.53,0-6.48-4.05-10.125t-11.07-3.645a20.376,20.376,0,0,0-12.96,4.725Q240.84-144.72,240.84-138.78ZM273.78,2.43q28.62,0,48.87-15.12t39.69-43.47a5.638,5.638,0,0,0,1.08-5.265q-.81-2.835-4.32-2.835-2.97,0-7.56,5.94-18.63,24.57-33.48,34.56a46.289,46.289,0,0,0,7.02-24.84A101.2,101.2,0,0,0,324-63.45a116.733,116.733,0,0,0-2.16-11.475,30.124,30.124,0,0,1-.81-9.18,27.812,27.812,0,0,1,2.43-9.855q10.26-10.26,10.8-14.04.27-4.05-1.755-5.94a7.044,7.044,0,0,0-4.995-1.89q-5.4,0-11.34,4.86-5.94,4.05-25.245,23.355T267.03-64.53q-8.91-4.32-18.5,6.615A38.212,38.212,0,0,0,238.95-31.86q0,12.69,8.5,23.49T273.78,2.43Zm29.7-55.35q0,14.85-11.745,25.515T269.46-16.74q-11.34,0-11.34-11.88a15.132,15.132,0,0,1,2.97-9.18,53.688,53.688,0,0,1,7.29-7.965,32.4,32.4,0,0,0,5.94-6.615q5.67-5.13,16.065-13.635t12.555-10.4q-.27,5.4.135,14.04T303.48-52.92Zm176.04-3.24a5.638,5.638,0,0,0,1.08-5.265q-.81-2.835-4.32-2.835-2.7,0-7.83,5.94Q453.33-39.15,429.3-29.43a129.5,129.5,0,0,0,21.465-26.325Q459-69.39,459-80.19q0-28.62-22.14-28.62-13.5,0-26.19,10.8t-27.54,29.7l-1.08-.27a110.4,110.4,0,0,1,7.83-12.69q4.59-6.48,6.615-9.99a13.143,13.143,0,0,0,2.025-6.48q0-8.1-11.34-8.1-9.45,0-14.04,7.83Q366.93-87.21,305.91,27q-.81,1.35-2.565,4.59t-2.43,4.32q-.675,1.08-1.89,3.375a25.683,25.683,0,0,0-1.62,3.51q-.4,1.215-1.08,2.97a12.22,12.22,0,0,0-.81,3.1q-.135,1.35-.135,2.7,0,7.56,10.53,7.56,8.64,0,14.31-11.07,3.24-6.21,9.99-19.71t13.1-25.38Q349.65-8.91,355.59-18.36l12.96-20.25q10.53-17.28,29.565-34.965T426.87-91.26q6.75,0,6.75,8.64,0,10.8-14.85,31.32T385.29-20.79q-3.51.27-9.99.27-15.66,0-15.66,11.88,0,10.8,12.42,10.8,11.88,0,29.97-10.53Q457.11-19.71,479.52-56.16ZM542.7-97.2q6.48,0,6.48,7.83,0,10.8-13.5,19.44T499.5-63.45a85.239,85.239,0,0,1,21.87-23.895Q534.6-97.2,542.7-97.2ZM497.07,2.16q21.06,0,44.01-17.55a150.735,150.735,0,0,0,37.26-40.77,5.638,5.638,0,0,0,1.08-5.265q-.81-2.835-4.32-2.835-2.16,0-7.83,5.94-32.4,39.96-59.94,39.96-8.1,0-12.42-4.32t-4.32-11.88a50.966,50.966,0,0,1,4.05-19.17q32.67,4.59,50.895-7.02T563.76-88.29q0-11.61-7.29-17.685T537.3-112.05q-15.12,0-32.265,10.395T475.2-72.36q-12.69,18.9-12.69,39.69,0,15.66,9.315,25.245T497.07,2.16Zm102.06,0q16.47,0,33.345-14.85T669.33-56.16a5.638,5.638,0,0,0,1.08-5.265q-.81-2.835-4.32-2.835-2.43,0-7.56,5.94-32.67,40.23-46.44,40.23-4.32,0-4.32-4.05,0-8.91,41.58-63.99,4.86-6.75,4.86-11.88,0-9.18-8.91-9.18-9.45,0-34.29,5.4a4.1,4.1,0,0,1,.4-1.485,7.6,7.6,0,0,0,.54-2.16A23.258,23.258,0,0,0,612.09-108q0-9.99-10.53-9.99a19.578,19.578,0,0,0-14.04,6.075q-6.21,6.075-6.21,13.635a8.415,8.415,0,0,0,2.835,6.75q2.835,2.43,5.265,2.43-8.64,13.23-22.14,30.78-4.05,6.75-4.05,7.56,0,5.13,4.32,5.13,4.05,0,9.18-8.37,18.9-26.19,25.38-36.45,18.09-3.51,24.84-4.32-4.32,7.29-17.145,24.7t-21.2,31.59Q580.23-24.3,580.23-15.93q0,8.91,5.265,13.5T599.13,2.16Z" transform="translate(913.085 608.29)" fill="#515151"/></g></svg>