<svg xmlns="http://www.w3.org/2000/svg" width="26.087" height="25" viewBox="0 0 26.087 25"><g transform="translate(0 0)"><path d="M8.75,17.612v5.041a.815.815,0,0,0,1.472.483l2.949-4.013Z" transform="translate(0.761 1.531)" fill="#fd8187"/><path d="M25.744.151a.816.816,0,0,0-.85-.059L.438,12.864a.816.816,0,0,0,.113,1.495l6.8,2.324L21.829,4.3l-11.2,13.5L22.019,21.7a.834.834,0,0,0,.263.043.815.815,0,0,0,.807-.695L26.078.936a.817.817,0,0,0-.334-.785Z" transform="translate(0 0)" fill="#fd8187"/></g></svg>