<svg xmlns="http://www.w3.org/2000/svg" width="20.197" height="22.907" viewBox="0 0 20.197 22.907"><g transform="translate(0)"><g transform="translate(0)"><path d="M45.453,72.031s-1.216-.547-1.216.731a2.9,2.9,0,0,0,1.22,2.134,7.582,7.582,0,1,1-8.1,0,2.9,2.9,0,0,0,1.22-2.134c0-1.278-1.216-.731-1.216-.731a10.1,10.1,0,1,0,8.089,0Z" transform="translate(-31.31 -68.802)" fill="#fd8187"/><path d="M233.451,0a1.348,1.348,0,0,0-1.485,1.152V11.294a1.348,1.348,0,0,0,1.485,1.152,1.192,1.192,0,0,0,1.344-1.152V1.152A1.192,1.192,0,0,0,233.451,0Z" transform="translate(-223.282)" fill="#fd8187"/></g></g></svg>