<svg xmlns="http://www.w3.org/2000/svg" width="20.611" height="14.722" viewBox="0 0 20.611 14.722"><g transform="translate(0)"><path d="M20.162,73.515a.8.8,0,0,0-.288-.057.684.684,0,0,0-.518.219L14.722,78.3V76.4a3.318,3.318,0,0,0-3.313-3.312h-8.1a3.191,3.191,0,0,0-2.341.972A3.191,3.191,0,0,0,0,76.4v8.1a3.191,3.191,0,0,0,.972,2.34,3.191,3.191,0,0,0,2.341.972h8.1A3.318,3.318,0,0,0,14.722,84.5V82.59l4.635,4.635a.684.684,0,0,0,.518.219.8.8,0,0,0,.288-.057.687.687,0,0,0,.449-.679V74.194A.688.688,0,0,0,20.162,73.515Z" transform="translate(0 -73.09)" fill="#fd8187"/></g></svg>